<svg width="136" height="59" viewBox="0 0 136 59" fill="none" xmlns="http://www.w3.org/2000/svg">
<path d="M86.528 31.328H81.68V44H76.232V31.328H71.384V26.768H86.528V31.328ZM88.8341 26.768H101.794V31.328H94.1861V33.104H100.426V37.544H94.1861V39.44H101.794V44H88.8341V26.768ZM103.118 41.768L105.782 37.688C107.366 39.224 109.382 39.872 111.038 39.872C112.238 39.872 112.982 39.512 112.982 38.816C112.982 38 112.022 37.904 109.334 37.424C106.862 36.992 104.102 35.984 104.102 32.408C104.102 28.712 107.318 26.48 111.278 26.48C114.326 26.48 116.726 27.56 118.19 28.904L115.526 32.624C114.326 31.472 112.694 30.896 111.134 30.896C110.15 30.896 109.454 31.16 109.454 31.856C109.454 32.576 110.39 32.696 112.382 33.08C114.998 33.584 118.382 34.376 118.382 38.264C118.382 42.152 114.998 44.288 110.798 44.288C108.062 44.288 104.63 43.352 103.118 41.768ZM134.9 31.328H130.052V44H124.604V31.328H119.756V26.768H134.9V31.328Z" fill="white"/>
<g clip-path="url(#clip0_1_767)">
<path d="M29.5001 4.91669L4.91675 17.2084L29.5001 29.5L54.0834 17.2084L29.5001 4.91669Z" stroke="white" stroke-width="4" stroke-linecap="round" stroke-linejoin="round"/>
<path d="M4.91675 41.7917L29.5001 54.0834L54.0834 41.7917" stroke="white" stroke-width="4" stroke-linecap="round" stroke-linejoin="round"/>
<path d="M4.91675 29.5L29.5001 41.7917L54.0834 29.5" stroke="white" stroke-width="12" stroke-linecap="round" stroke-linejoin="round"/>
</g>
<defs>
<clipPath id="clip0_1_767">
<rect width="59" height="59" fill="white"/>
</clipPath>
</defs>
</svg>
